<svg width="20" height="20" viewBox="0 0 20 20" fill="none" xmlns="http://www.w3.org/2000/svg">
<path d="M8.15832 10.6583L3.33332 15.4916V14.1666C3.33332 13.9456 3.24553 13.7337 3.08925 13.5774C2.93297 13.4211 2.721 13.3333 2.49999 13.3333C2.27898 13.3333 2.06701 13.4211 1.91073 13.5774C1.75445 13.7337 1.66666 13.9456 1.66666 14.1666V17.5C1.66797 17.6089 1.69062 17.7164 1.73332 17.8166C1.81789 18.0203 1.9797 18.1821 2.18332 18.2666C2.28351 18.3093 2.39109 18.332 2.49999 18.3333H5.83332C6.05434 18.3333 6.2663 18.2455 6.42258 18.0892C6.57886 17.9329 6.66666 17.721 6.66666 17.5C6.66666 17.2789 6.57886 17.067 6.42258 16.9107C6.2663 16.7544 6.05434 16.6666 5.83332 16.6666H4.50832L9.34166 11.8416C9.49858 11.6847 9.58673 11.4719 9.58673 11.25C9.58673 11.028 9.49858 10.8152 9.34166 10.6583C9.18474 10.5014 8.97191 10.4132 8.74999 10.4132C8.52807 10.4132 8.31524 10.5014 8.15832 10.6583ZM18.2667 2.18329C18.1821 1.97967 18.0203 1.81786 17.8167 1.73329C17.7165 1.69059 17.6089 1.66794 17.5 1.66663H14.1667C13.9456 1.66663 13.7337 1.75442 13.5774 1.9107C13.4211 2.06698 13.3333 2.27895 13.3333 2.49996C13.3333 2.72097 13.4211 2.93293 13.5774 3.08922C13.7337 3.2455 13.9456 3.33329 14.1667 3.33329H15.4917L10.6583 8.15829C10.5802 8.23576 10.5182 8.32793 10.4759 8.42948C10.4336 8.53103 10.4118 8.63995 10.4118 8.74996C10.4118 8.85997 10.4336 8.96889 10.4759 9.07044C10.5182 9.17199 10.5802 9.26416 10.6583 9.34163C10.7358 9.41973 10.828 9.48173 10.9295 9.52404C11.0311 9.56634 11.14 9.58812 11.25 9.58812C11.36 9.58812 11.4689 9.56634 11.5705 9.52404C11.672 9.48173 11.7642 9.41973 11.8417 9.34163L16.6667 4.50829V5.83329C16.6667 6.05431 16.7545 6.26627 16.9107 6.42255C17.067 6.57883 17.279 6.66663 17.5 6.66663C17.721 6.66663 17.933 6.57883 18.0892 6.42255C18.2455 6.26627 18.3333 6.05431 18.3333 5.83329V2.49996C18.332 2.39106 18.3094 2.28348 18.2667 2.18329Z" fill="#5F5F5F"/>
</svg>
