<svg width="85" height="59" viewBox="0 0 85 59" fill="none" xmlns="http://www.w3.org/2000/svg">
<g clip-path="url(#clip0_4178_8994)">
<path d="M47.4672 6.31648C47.4672 9.35109 45.2429 11.8118 42.4997 11.8118C39.7566 11.8118 37.5322 9.35109 37.5322 6.31648C37.5322 3.28188 47.4672 3.28188 47.4672 6.31648Z" fill="#BCBCBC"/>
<path d="M42.4998 11.0557C22.7285 11.0557 6.7002 28.787 6.7002 50.6591H78.2995C78.2995 28.787 62.2712 11.0557 42.4998 11.0557Z" fill="#C6C6C6"/>
<path d="M42.5002 11.0557C40.829 11.0557 39.1857 11.1855 37.5762 11.4309C55.0169 14.0853 68.4511 30.635 68.4511 50.6591H78.2999C78.2999 28.787 62.2716 11.0557 42.5002 11.0557Z" fill="#B4B4B4"/>
<path d="M82.544 56.6662H2.45586C1.0992 56.6662 0 55.4495 0 53.9494V52.2197C0 50.7196 1.0992 49.5029 2.45586 49.5029H82.5446C83.9006 49.5029 84.9998 50.7196 84.9998 52.2197V53.9494C84.9998 55.4495 83.9006 56.6662 82.544 56.6662Z" fill="#9C9C9C"/>
</g>
<defs>
<clipPath id="clip0_4178_8994">
<rect width="85" height="59" fill="white"/>
</clipPath>
</defs>
</svg>
