<svg width="25" height="24" viewBox="0 0 25 24" fill="none" xmlns="http://www.w3.org/2000/svg">
<g clip-path="url(#clip0_146_6459)">
<path fill-rule="evenodd" clip-rule="evenodd" d="M17.776 5.01636C19.8568 5.49921 20.6528 6.71594 21.6507 8.39062H17.776V5.01636ZM5.61563 8.53125C6.02304 8.53125 6.31876 8.72791 6.31876 9.1875C6.31876 9.57513 6.0051 9.88953 5.61765 9.89062H1.36978C0.981415 9.89062 0.666656 10.2056 0.666656 10.5938C0.666656 10.9821 0.981415 11.2969 1.36978 11.2969H7.69791C8.08994 11.2969 8.40378 11.6115 8.40378 12C8.40378 12.3884 8.08902 12.7031 7.70065 12.7031H1.36978C0.981415 12.7031 0.666656 13.0179 0.666656 13.4062C0.666656 13.7946 0.981415 14.1094 1.36978 14.1094H2.91666V16.2188C2.91666 16.6071 3.23141 16.9219 3.61978 16.9219H5.03317C5.28513 18.163 6.38174 19.0781 7.67447 19.0781C8.96719 19.0781 10.0638 18.163 10.3158 16.9219H17.455C17.707 18.163 18.8036 19.0781 20.0963 19.0781C21.3891 19.0781 22.4857 18.163 22.7376 16.9219H23.9635C24.3519 16.9219 24.6667 16.6071 24.6667 16.2188V12C24.6667 9.93695 22.4906 9.79999 22.4886 9.79688H17.0729C16.6845 9.79688 16.3698 9.48212 16.3698 9.09375V4.875H3.61978C3.23141 4.875 2.91666 5.18976 2.91666 5.57812V7.125H2.07291C1.68454 7.125 1.36978 7.43976 1.36978 7.82812C1.36978 8.21649 1.68454 8.53125 2.07291 8.53125H5.61563ZM21.0078 15.4713C21.5112 15.9747 21.5112 16.7911 21.0078 17.2945C20.1982 18.1042 18.8073 17.5281 18.8073 16.3828C18.8073 15.2377 20.1982 14.6616 21.0078 15.4713ZM8.58597 15.4713C9.08932 15.9747 9.08932 16.7911 8.58597 17.2945C7.77628 18.1042 6.38541 17.5281 6.38541 16.3828C6.38541 15.2377 7.77628 14.6616 8.58597 15.4713Z" fill="#F5C109"/>
</g>
<defs>
<clipPath id="clip0_146_6459">
<rect width="24" height="24" fill="white" transform="translate(0.666656)"/>
</clipPath>
</defs>
</svg>
