<svg width="20" height="20" viewBox="0 0 20 20" fill="none" xmlns="http://www.w3.org/2000/svg">
<path d="M9.99998 1.66675C8.23187 1.66675 6.53618 2.36913 5.28593 3.61937C4.03569 4.86961 3.33331 6.5653 3.33331 8.33342C3.33331 12.8334 9.20831 17.9167 9.45831 18.1334C9.60926 18.2625 9.80135 18.3335 9.99998 18.3335C10.1986 18.3335 10.3907 18.2625 10.5416 18.1334C10.8333 17.9167 16.6666 12.8334 16.6666 8.33342C16.6666 6.5653 15.9643 4.86961 14.714 3.61937C13.4638 2.36913 11.7681 1.66675 9.99998 1.66675ZM9.99998 16.3751C8.22498 14.7084 4.99998 11.1167 4.99998 8.33342C4.99998 7.00733 5.52676 5.73556 6.46445 4.79788C7.40213 3.8602 8.6739 3.33341 9.99998 3.33341C11.3261 3.33341 12.5978 3.8602 13.5355 4.79788C14.4732 5.73556 15 7.00733 15 8.33342C15 11.1167 11.775 14.7167 9.99998 16.3751ZM9.99998 5.00008C9.34071 5.00008 8.69624 5.19558 8.14808 5.56185C7.59992 5.92812 7.17267 6.44872 6.92038 7.0578C6.66809 7.66689 6.60208 8.33711 6.73069 8.98372C6.85931 9.63032 7.17678 10.2243 7.64296 10.6904C8.10913 11.1566 8.70307 11.4741 9.34968 11.6027C9.99628 11.7313 10.6665 11.6653 11.2756 11.413C11.8847 11.1607 12.4053 10.7335 12.7715 10.1853C13.1378 9.63715 13.3333 8.99269 13.3333 8.33342C13.3333 7.44936 12.9821 6.60151 12.357 5.97639C11.7319 5.35127 10.884 5.00008 9.99998 5.00008ZM9.99998 10.0001C9.67034 10.0001 9.34811 9.90233 9.07403 9.7192C8.79995 9.53606 8.58633 9.27576 8.46018 8.97122C8.33403 8.66668 8.30103 8.33157 8.36534 8.00826C8.42965 7.68496 8.58838 7.38799 8.82147 7.1549C9.05456 6.92182 9.35153 6.76308 9.67483 6.69877C9.99813 6.63446 10.3332 6.66747 10.6378 6.79362C10.9423 6.91976 11.2026 7.13338 11.3858 7.40746C11.5689 7.68155 11.6666 8.00378 11.6666 8.33342C11.6666 8.77544 11.4911 9.19937 11.1785 9.51193C10.8659 9.82449 10.442 10.0001 9.99998 10.0001Z" fill="#5F5F5F"/>
</svg>
